<svg xmlns="http://www.w3.org/2000/svg" height="40" viewBox="0 -960 960 960" width="40"><path d="m722.666-314.666-47.999-48L757.334-480l-150-213.334H343.998L277.332-760H600q24 0 40 9.833 16 9.834 29.333 28.834L840-480 722.666-314.666ZM792-56 638-210q-6.333 5-17.333 7.5-11 2.5-22.322 2.5H186.666q-26.333 0-46.499-20.167Q120-240.333 120-266.666V-680q0-13 2.833-21.333Q125.667-709.667 130-718l-74-74 46.666-46.666 736 735.333L792-56ZM383-461.333Zm129.333-64.333Zm69.001 259L186.666-661.334v394.668h394.668Z"/></svg>